# xmcd
#
# Track frame offsets:
#	183
#	14903
#	29790
#	42693
#	61600
#	74898
#	88225
#	100148
#	116085
#	131475
#	143350
#	159100
#	174705
#	191908
#	206975
#	219510
#	235300
#	250810
#	269055
#	286018
#
# Disc length: 4005 seconds
#
# Revision: 1
# Processed by: cddbd v1.4PL0 Copyright (c) Steve Scherf et al.
# Submitted via: audiograbber 1.80
#
DISCID=3f0fa314
DTITLE=Crystal Gayle - Cage The Songbird - Nobody Wants To Be Alone
DYEAR=1900
DGENRE=
TTITLE0=The Sound Of Goodbye
TTITLE1=I Don't Wanna Lose Your Love
TTITLE2=Me Against The Night
TTITLE3=Cage The Songbird
TTITLE4=Turning Away
TTITLE5=Come Back (When You Can Stay Forever)
TTITLE6=Victim Or A Fool
TTITLE7=You Made A Fool Of Me
TTITLE8=On Our Way To Love
TTITLE9=Take Me Home
TTITLE10=A Long And Lasting Love
TTITLE11=Tonight, Tonight
TTITLE12=Nobody Wants To Be Alone
TTITLE13=Love Does That To Fools
TTITLE14=Coming To The Dance
TTITLE15=You Were There For Me
TTITLE16=Touch And Go
TTITLE17=Someone Like You
TTITLE18=A New Way To Say I Love You
TTITLE19=God Bless The Child
EXTD=
EXTT0=
EXTT1=
EXTT2=
EXTT3=
EXTT4=
EXTT5=
EXTT6=
EXTT7=
EXTT8=
EXTT9=
EXTT10=
EXTT11=
EXTT12=
EXTT13=
EXTT14=
EXTT15=
EXTT16=
EXTT17=
EXTT18=
EXTT19=
PLAYORDER=
